# Exported from ProBuilder
# http://www.procore3d.com/probuilder
# 8/29/2018 11:19:06 PM

mtllib ./CubeBelow.mtl
o CubeBelow

g CubeBelow
v 0.1239611 -0.05030001 -0.07414703
v -0.1467475 -0.05130006 -0.07414703
v -0.1467475 -0.04930006 -0.07414703
v -0.1467475 -0.04930006 -0.07414703
v -0.1467475 -0.05130006 -0.07414703
v -0.1467475 -0.05130006 -0.102502
v -0.1467475 -0.04930006 -0.102502
v -0.1467475 -0.04930006 -0.102502
v -0.1467475 -0.05130006 -0.102502
v 0.1502525 -0.05130006 -0.102502
v 0.1502525 -0.04930006 -0.102502
v 0.1502525 -0.04930006 -0.102502
v 0.1502525 -0.05130006 -0.102502
v 0.1239611 -0.05030001 -0.07414703
v 0.1502525 -0.04930006 -0.102502
v 0.1239611 -0.05030001 -0.07414703
v -0.1467475 -0.04930006 -0.07414703
v -0.1467475 -0.04930006 -0.102502
v 0.1239611 -0.05030001 -0.07414703
v 0.1502525 -0.05130006 -0.102502
v -0.1467475 -0.05130006 -0.102502
v -0.1467475 -0.05130006 -0.07414703

vn 0 0 1
vn 0 0 1
vn 0 0 1
vn -0.9999999 0 0
vn -0.9999999 0 0
vn -0.9999999 0 0
vn -0.9999999 0 0
vn 0 0 -0.9999999
vn 0 0 -0.9999999
vn 0 0 -0.9999999
vn 0 0 -0.9999999
vn 0.7332869 0 0.6799193
vn 0.7332869 0 0.6799193
vn 0.7332869 0 0.6799193
vn 0.001761089 0.9998283 0.01844625
vn 0.003691064 0.9992455 0.03866146
vn 0.001761089 0.9998283 0.01844625
vn 0 1 0
vn 0.00176124 -0.9998283 0.01844783
vn 0 -0.9993786 0.03524673
vn 0.00176124 -0.9998283 0.01844783
vn 0.003694142 -0.9999931 0

vt 0 0
vt 0 0
vt 0 0
vt 0.05250001 0.0009999534
vt 0.05250001 -0.001000047
vt -0.05249999 -0.001000047
vt -0.05249999 0.0009999534
vt 0.1485 0.0009999534
vt 0.1485 -0.001000047
vt -0.1485 -0.001000047
vt -0.1485 0.0009999534
vt 0.140431 0.0009999534
vt 0.140431 -0.001000047
vt -0.004568977 -1.001172E-08
vt -0.148493 -0.05251976
vt -0.0484994 0.05249107
vt 0.1485032 0.05249107
vt 0.1485032 -0.05249811
vt 0.04850002 0.05249763
vt 0.1485 -0.05250713
vt -0.1485 -0.05250713
vt -0.1485 0.0524881

g CubeBelow_0
usemtl WorkingPlane
f 7/7/7 6/6/6 5/5/5 4/4/4
f 11/11/11 10/10/10 9/9/9 8/8/8
f 18/18/18 17/17/17 16/16/16 15/15/15
f 22/22/22 21/21/21 20/20/20 19/19/19

g CubeBelow_1
usemtl WorkingPlane
f 3/3/3 2/2/2 1/1/1
f 14/14/14 13/13/13 12/12/12

